<svg xmlns="http://www.w3.org/2000/svg" width="19.789" height="20.992" viewBox="0 0 19.789 20.992"><defs><style>.a{fill:#2190bd;}</style></defs><g transform="translate(0.729)"><g transform="translate(-1.879)"><path class="a" d="M7.143,33.871l7.093-5a.491.491,0,0,0,0-.76l-7.093-5a.3.3,0,0,0-.36,0,.464.464,0,0,0-.18.38v2.327H.481a.405.405,0,0,0-.36.439v4.464a.405.405,0,0,0,.36.439H6.6v2.327a.463.463,0,0,0,.18.38.305.305,0,0,0,.359,0Z" transform="translate(1.029 -17.997)"/><path class="a" d="M47.406,0H38.465a.439.439,0,0,0-.439.439V1.755a.439.439,0,0,0,.439.439h8.941a1.048,1.048,0,0,1,1.047,1.047v14.51A1.048,1.048,0,0,1,47.406,18.8H38.465a.439.439,0,0,0-.439.439v1.317a.439.439,0,0,0,.439.439h8.941a3.245,3.245,0,0,0,3.241-3.241V3.241A3.245,3.245,0,0,0,47.406,0Z" transform="translate(-29.709 0)"/></g></g></svg>