<svg xmlns="http://www.w3.org/2000/svg" width="17.876" height="21.426" viewBox="0 0 17.876 21.426"><defs><style>.a{fill:#2190bd;}</style></defs><g transform="translate(0 0)"><path class="a" d="M92.192,10.321a4.993,4.993,0,0,0,3.649-1.512,4.993,4.993,0,0,0,1.512-3.649,4.994,4.994,0,0,0-1.512-3.649,5.159,5.159,0,0,0-7.3,0,4.993,4.993,0,0,0-1.512,3.649,4.993,4.993,0,0,0,1.512,3.649A4.994,4.994,0,0,0,92.192,10.321Zm0,0" transform="translate(-83.39)"/><path class="a" d="M17.832,253.442a12.747,12.747,0,0,0-.174-1.354,10.667,10.667,0,0,0-.333-1.361,6.724,6.724,0,0,0-.56-1.269,4.79,4.79,0,0,0-.844-1.1,3.721,3.721,0,0,0-1.212-.762,4.189,4.189,0,0,0-1.547-.28,1.571,1.571,0,0,0-.839.356c-.251.164-.545.354-.874.563a5.007,5.007,0,0,1-1.131.5,4.39,4.39,0,0,1-2.766,0,5,5,0,0,1-1.13-.5c-.325-.208-.619-.4-.875-.564a1.568,1.568,0,0,0-.838-.356,4.184,4.184,0,0,0-1.547.28,3.717,3.717,0,0,0-1.212.762,4.791,4.791,0,0,0-.843,1.1,6.737,6.737,0,0,0-.56,1.27,10.692,10.692,0,0,0-.333,1.361,12.7,12.7,0,0,0-.174,1.354c-.028.41-.043.835-.043,1.265A3.558,3.558,0,0,0,1.056,257.4a3.8,3.8,0,0,0,2.723.993H14.1a3.8,3.8,0,0,0,2.723-.993,3.556,3.556,0,0,0,1.057-2.692c0-.432-.015-.858-.043-1.266Zm0,0" transform="translate(0 -236.967)"/></g></svg>